<mxfile host="app.diagrams.net" modified="2023-08-14T12:59:58.820Z" agent="Mozilla/5.0 (Macintosh; Intel Mac OS X 10_15_7) AppleWebKit/537.36 (KHTML, like Gecko) Chrome/115.0.0.0 Safari/537.36" etag="2j3xzmQQOdDfVQG9Gfoz" version="21.6.8" type="github">
  <diagram name="Page-1" id="QaF02aVG69fwTc1gb2MW">
    <mxGraphModel dx="516" dy="292" grid="1" gridSize="10" guides="1" tooltips="1" connect="1" arrows="1" fold="1" page="1" pageScale="1" pageWidth="827" pageHeight="1169" math="0" shadow="0">
      <root>
        <mxCell id="0" />
        <mxCell id="1" parent="0" />
        <mxCell id="kX8SRu0ErOylLQwdDH6L-1" value="Orgchart" style="swimlane;startSize=20;horizontal=1;containerType=tree;newEdgeStyle={&quot;edgeStyle&quot;:&quot;elbowEdgeStyle&quot;,&quot;startArrow&quot;:&quot;none&quot;,&quot;endArrow&quot;:&quot;none&quot;};" vertex="1" parent="1">
          <mxGeometry x="270" y="170" width="280" height="220" as="geometry" />
        </mxCell>
        <mxCell id="kX8SRu0ErOylLQwdDH6L-2" value="" style="edgeStyle=elbowEdgeStyle;elbow=vertical;sourcePerimeterSpacing=0;targetPerimeterSpacing=0;startArrow=none;endArrow=none;rounded=0;curved=0;" edge="1" parent="kX8SRu0ErOylLQwdDH6L-1" source="kX8SRu0ErOylLQwdDH6L-4" target="kX8SRu0ErOylLQwdDH6L-5">
          <mxGeometry relative="1" as="geometry" />
        </mxCell>
        <mxCell id="kX8SRu0ErOylLQwdDH6L-3" value="" style="edgeStyle=elbowEdgeStyle;elbow=vertical;sourcePerimeterSpacing=0;targetPerimeterSpacing=0;startArrow=none;endArrow=none;rounded=0;curved=0;" edge="1" parent="kX8SRu0ErOylLQwdDH6L-1" source="kX8SRu0ErOylLQwdDH6L-4" target="kX8SRu0ErOylLQwdDH6L-6">
          <mxGeometry relative="1" as="geometry" />
        </mxCell>
        <UserObject label="Organization" treeRoot="1" id="kX8SRu0ErOylLQwdDH6L-4">
          <mxCell style="whiteSpace=wrap;html=1;align=center;treeFolding=1;treeMoving=1;newEdgeStyle={&quot;edgeStyle&quot;:&quot;elbowEdgeStyle&quot;,&quot;startArrow&quot;:&quot;none&quot;,&quot;endArrow&quot;:&quot;none&quot;};" vertex="1" parent="kX8SRu0ErOylLQwdDH6L-1">
            <mxGeometry x="80" y="40" width="120" height="60" as="geometry" />
          </mxCell>
        </UserObject>
        <mxCell id="kX8SRu0ErOylLQwdDH6L-5" value="Division" style="whiteSpace=wrap;html=1;align=center;verticalAlign=middle;treeFolding=1;treeMoving=1;newEdgeStyle={&quot;edgeStyle&quot;:&quot;elbowEdgeStyle&quot;,&quot;startArrow&quot;:&quot;none&quot;,&quot;endArrow&quot;:&quot;none&quot;};" vertex="1" parent="kX8SRu0ErOylLQwdDH6L-1">
          <mxGeometry x="20" y="140" width="100" height="60" as="geometry" />
        </mxCell>
        <mxCell id="kX8SRu0ErOylLQwdDH6L-6" value="Division" style="whiteSpace=wrap;html=1;align=center;verticalAlign=middle;treeFolding=1;treeMoving=1;newEdgeStyle={&quot;edgeStyle&quot;:&quot;elbowEdgeStyle&quot;,&quot;startArrow&quot;:&quot;none&quot;,&quot;endArrow&quot;:&quot;none&quot;};" vertex="1" parent="kX8SRu0ErOylLQwdDH6L-1">
          <mxGeometry x="160" y="140" width="100" height="60" as="geometry" />
        </mxCell>
      </root>
    </mxGraphModel>
  </diagram>
</mxfile>
